# xmcd
#
# Track frame offsets: 
#        150
#        12119
#        20774
#        31031
#        41132
#        50099
#        60641
#        70039
#        81285
#
# Disc length: 1248 seconds
#
# Revision: 0
# Processed by: cddbd v1.5.2PL0 Copyright (c) Steve Scherf et al.
# Submitted via: ExactAudioCopy v1.3
#
DISCID=7004de09
DTITLE=Johnny Horton - The Unforgettable Johnny Horton
DYEAR=1968
DGENRE=Country
TTITLE0=Rock Island Line
TTITLE1=Hooray For That Little Difference
TTITLE2=Everytime I'm Kissng You
TTITLE3=Sugar-Coated Baby
TTITLE4=I'm A One Woman Man
TTITLE5=Goodbye Lonesome, Hello Baby Doll
TTITLE6=I'm Coming Home
TTITLE7=The Same Old Tale The Crow Told Me
TTITLE8=All For The Love Of A Girl
EXTD=
EXTT0=
EXTT1=
EXTT2=
EXTT3=
EXTT4=
EXTT5=
EXTT6=
EXTT7=
EXTT8=
PLAYORDER=
